<svg width="193" height="62" viewBox="0 0 193 62" fill="none" xmlns="http://www.w3.org/2000/svg">
<g clip-path="url(#clip0_67_6805)">
<g clip-path="url(#clip1_67_6805)">
<path d="M26.946 40.9672C27.686 44.8646 29.9553 46.8132 33.754 46.8132C36.3687 46.8132 38.2187 45.6539 39.304 43.3352C40.3893 41.0166 40.932 37.2426 40.932 32.0132C39.8467 33.5426 38.3667 34.7266 36.492 35.5652C34.6173 36.4039 32.5207 36.8232 30.202 36.8232C27.0447 36.8232 24.2327 36.1819 21.766 34.8992C19.2993 33.5672 17.3507 31.6186 15.92 29.0532C14.5387 26.4386 13.848 23.2812 13.848 19.5812C13.848 15.9306 14.588 12.7486 16.068 10.0352C17.5973 7.32189 19.7433 5.22522 22.506 3.74522C25.318 2.26522 28.6233 1.52522 32.422 1.52522C39.7233 1.52522 44.8293 3.79455 47.74 8.33322C50.6507 12.8719 52.106 19.5566 52.106 28.3872C52.106 34.8006 51.514 40.1039 50.33 44.2972C49.1953 48.4412 47.2467 51.5986 44.484 53.7692C41.7707 55.9399 38.046 57.0252 33.31 57.0252C29.5607 57.0252 26.354 56.2852 23.69 54.8052C21.0753 53.3252 19.0527 51.3766 17.622 48.9592C16.2407 46.5419 15.4513 43.8779 15.254 40.9672H26.946ZM33.088 26.8332C35.16 26.8332 36.8127 26.2166 38.046 24.9832C39.2793 23.7006 39.896 21.9739 39.896 19.8032C39.896 17.4352 39.2547 15.6099 37.972 14.3272C36.6893 13.0446 34.9627 12.4032 32.792 12.4032C30.6213 12.4032 28.8947 13.0692 27.612 14.4012C26.3787 15.6839 25.762 17.4599 25.762 19.7292C25.762 21.8506 26.3787 23.5772 27.612 24.9092C28.8947 26.1919 30.72 26.8332 33.088 26.8332ZM72.6733 40.9672C73.4133 44.8646 75.6827 46.8132 79.4813 46.8132C82.096 46.8132 83.946 45.6539 85.0313 43.3352C86.1167 41.0166 86.6593 37.2426 86.6593 32.0132C85.574 33.5426 84.094 34.7266 82.2193 35.5652C80.3447 36.4039 78.248 36.8232 75.9293 36.8232C72.772 36.8232 69.96 36.1819 67.4933 34.8992C65.0267 33.5672 63.078 31.6186 61.6473 29.0532C60.266 26.4386 59.5753 23.2812 59.5753 19.5812C59.5753 15.9306 60.3153 12.7486 61.7953 10.0352C63.3247 7.32189 65.4707 5.22522 68.2333 3.74522C71.0453 2.26522 74.3507 1.52522 78.1493 1.52522C85.4507 1.52522 90.5567 3.79455 93.4673 8.33322C96.378 12.8719 97.8333 19.5566 97.8333 28.3872C97.8333 34.8006 97.2413 40.1039 96.0573 44.2972C94.9227 48.4412 92.974 51.5986 90.2113 53.7692C87.498 55.9399 83.7733 57.0252 79.0373 57.0252C75.288 57.0252 72.0813 56.2852 69.4173 54.8052C66.8027 53.3252 64.78 51.3766 63.3493 48.9592C61.968 46.5419 61.1787 43.8779 60.9813 40.9672H72.6733ZM78.8153 26.8332C80.8873 26.8332 82.54 26.2166 83.7733 24.9832C85.0067 23.7006 85.6233 21.9739 85.6233 19.8032C85.6233 17.4352 84.982 15.6099 83.6993 14.3272C82.4167 13.0446 80.69 12.4032 78.5193 12.4032C76.3487 12.4032 74.622 13.0692 73.3393 14.4012C72.106 15.6839 71.4893 17.4599 71.4893 19.7292C71.4893 21.8506 72.106 23.5772 73.3393 24.9092C74.622 26.1919 76.4473 26.8332 78.8153 26.8332Z" fill="#252B42"/>
</g>
<g clip-path="url(#clip2_67_6805)">
<g clip-path="url(#clip3_67_6805)">
<path d="M123.86 17.2232C123.86 17.9566 123.667 18.6366 123.28 19.2632C122.907 19.8766 122.347 20.3832 121.6 20.7832C120.867 21.1699 119.993 21.3832 118.98 21.4232V23.0432H117.7V21.4032C116.287 21.2832 115.147 20.8632 114.28 20.1432C113.413 19.4099 112.953 18.4166 112.9 17.1632H116.54C116.62 17.9632 117.007 18.4766 117.7 18.7032V15.5432C116.66 15.2766 115.827 15.0166 115.2 14.7632C114.587 14.5099 114.047 14.1032 113.58 13.5432C113.113 12.9832 112.88 12.2166 112.88 11.2432C112.88 10.0299 113.327 9.05656 114.22 8.32322C115.127 7.58989 116.287 7.17656 117.7 7.08322V5.46322H118.98V7.08322C120.38 7.18989 121.487 7.59656 122.3 8.30322C123.113 9.00989 123.567 9.98989 123.66 11.2432H120C119.92 10.5232 119.58 10.0566 118.98 9.84322V12.9432C120.087 13.2499 120.94 13.5232 121.54 13.7632C122.14 14.0032 122.673 14.4032 123.14 14.9632C123.62 15.5099 123.86 16.2632 123.86 17.2232ZM116.5 11.0832C116.5 11.4166 116.6 11.6966 116.8 11.9232C117.013 12.1499 117.313 12.3499 117.7 12.5232V9.74322C117.327 9.80989 117.033 9.95656 116.82 10.1832C116.607 10.3966 116.5 10.6966 116.5 11.0832ZM118.98 18.7632C119.38 18.6966 119.693 18.5366 119.92 18.2832C120.16 18.0299 120.28 17.7166 120.28 17.3432C120.28 16.9966 120.167 16.7166 119.94 16.5032C119.727 16.2766 119.407 16.0832 118.98 15.9232V18.7632Z" fill="#252B42"/>
</g>
<g clip-path="url(#clip4_67_6805)">
<path d="M120.688 37.4152C120.688 38.3432 120.368 39.1166 119.728 39.7352C119.099 40.3432 118.133 40.6472 116.832 40.6472H114.688V45.3032H113.232V34.1512H116.832C118.091 34.1512 119.045 34.4552 119.696 35.0632C120.357 35.6712 120.688 36.4552 120.688 37.4152ZM116.832 39.4472C117.643 39.4472 118.24 39.2712 118.624 38.9192C119.008 38.5672 119.2 38.0659 119.2 37.4152C119.2 36.0392 118.411 35.3512 116.832 35.3512H114.688V39.4472H116.832ZM130.598 40.5832C130.598 40.8606 130.582 41.1539 130.55 41.4632H123.542C123.595 42.3272 123.888 43.0046 124.422 43.4952C124.966 43.9752 125.622 44.2152 126.39 44.2152C127.019 44.2152 127.542 44.0712 127.958 43.7832C128.384 43.4846 128.683 43.0899 128.854 42.5992H130.422C130.187 43.4419 129.718 44.1299 129.014 44.6632C128.31 45.1859 127.435 45.4472 126.39 45.4472C125.558 45.4472 124.811 45.2606 124.15 44.8872C123.499 44.5139 122.987 43.9859 122.614 43.3032C122.24 42.6099 122.054 41.8099 122.054 40.9032C122.054 39.9966 122.235 39.2019 122.598 38.5192C122.96 37.8366 123.467 37.3139 124.118 36.9512C124.779 36.5779 125.536 36.3912 126.39 36.3912C127.222 36.3912 127.958 36.5726 128.598 36.9352C129.238 37.2979 129.728 37.7992 130.07 38.4392C130.422 39.0686 130.598 39.7832 130.598 40.5832ZM129.094 40.2792C129.094 39.7246 128.971 39.2499 128.726 38.8552C128.48 38.4499 128.144 38.1459 127.718 37.9432C127.302 37.7299 126.838 37.6232 126.326 37.6232C125.59 37.6232 124.96 37.8579 124.438 38.3272C123.926 38.7966 123.632 39.4472 123.558 40.2792H129.094ZM134.076 37.9592C134.332 37.4579 134.694 37.0686 135.164 36.7912C135.644 36.5139 136.225 36.3752 136.908 36.3752V37.8792H136.524C134.892 37.8792 134.076 38.7646 134.076 40.5352V45.3032H132.62V36.5352H134.076V37.9592ZM154.366 34.2312V45.3032H152.91V37.0472L149.23 45.3032H148.206L144.51 37.0312V45.3032H143.054V34.2312H144.622L148.718 43.3832L152.814 34.2312H154.366ZM160.759 45.4472C159.938 45.4472 159.191 45.2606 158.519 44.8872C157.858 44.5139 157.335 43.9859 156.951 43.3032C156.578 42.6099 156.391 41.8099 156.391 40.9032C156.391 40.0072 156.583 39.2179 156.967 38.5352C157.362 37.8419 157.895 37.3139 158.567 36.9512C159.239 36.5779 159.991 36.3912 160.823 36.3912C161.655 36.3912 162.407 36.5779 163.079 36.9512C163.751 37.3139 164.279 37.8366 164.663 38.5192C165.058 39.2019 165.255 39.9966 165.255 40.9032C165.255 41.8099 165.052 42.6099 164.647 43.3032C164.252 43.9859 163.714 44.5139 163.031 44.8872C162.348 45.2606 161.591 45.4472 160.759 45.4472ZM160.759 44.1672C161.282 44.1672 161.772 44.0446 162.231 43.7992C162.69 43.5539 163.058 43.1859 163.335 42.6952C163.623 42.2046 163.767 41.6072 163.767 40.9032C163.767 40.1992 163.628 39.6019 163.351 39.1112C163.074 38.6206 162.711 38.2579 162.263 38.0232C161.815 37.7779 161.33 37.6552 160.807 37.6552C160.274 37.6552 159.783 37.7779 159.335 38.0232C158.898 38.2579 158.546 38.6206 158.279 39.1112C158.012 39.6019 157.879 40.1992 157.879 40.9032C157.879 41.6179 158.007 42.2206 158.263 42.7112C158.53 43.2019 158.882 43.5699 159.319 43.8152C159.756 44.0499 160.236 44.1672 160.759 44.1672ZM171.541 36.3752C172.608 36.3752 173.472 36.7006 174.133 37.3512C174.795 37.9912 175.125 38.9192 175.125 40.1352V45.3032H173.685V40.3432C173.685 39.4686 173.467 38.8019 173.029 38.3432C172.592 37.8739 171.995 37.6392 171.237 37.6392C170.469 37.6392 169.856 37.8792 169.397 38.3592C168.949 38.8392 168.725 39.5379 168.725 40.4552V45.3032H167.269V36.5352H168.725V37.7832C169.013 37.3352 169.403 36.9886 169.893 36.7432C170.395 36.4979 170.944 36.3752 171.541 36.3752ZM179.38 37.7352V42.9032C179.38 43.3299 179.471 43.6339 179.652 43.8152C179.833 43.9859 180.148 44.0712 180.596 44.0712H181.668V45.3032H180.356C179.545 45.3032 178.937 45.1166 178.532 44.7432C178.127 44.3699 177.924 43.7566 177.924 42.9032V37.7352H176.788V36.5352H177.924V34.3272H179.38V36.5352H181.668V37.7352H179.38ZM187.884 36.3752C188.545 36.3752 189.143 36.5192 189.676 36.8072C190.209 37.0846 190.625 37.5059 190.924 38.0712C191.233 38.6366 191.388 39.3246 191.388 40.1352V45.3032H189.948V40.3432C189.948 39.4686 189.729 38.8019 189.292 38.3432C188.855 37.8739 188.257 37.6392 187.5 37.6392C186.732 37.6392 186.119 37.8792 185.66 38.3592C185.212 38.8392 184.988 39.5379 184.988 40.4552V45.3032H183.532V33.4632H184.988V37.7832C185.276 37.3352 185.671 36.9886 186.172 36.7432C186.684 36.4979 187.255 36.3752 187.884 36.3752Z" fill="#374754"/>
</g>
</g>
</g>
<defs>
<clipPath id="clip0_67_6805">
<rect width="193" height="61" fill="white" transform="translate(0 0.303223)"/>
</clipPath>
<clipPath id="clip1_67_6805">
<rect width="112" height="104" fill="white" transform="translate(0 -21.1968)"/>
</clipPath>
<clipPath id="clip2_67_6805">
<rect width="81" height="51" fill="white" transform="translate(112 0.303223)"/>
</clipPath>
<clipPath id="clip3_67_6805">
<rect width="14" height="28" fill="white" transform="translate(112 0.303223)"/>
</clipPath>
<clipPath id="clip4_67_6805">
<rect width="81" height="23" fill="white" transform="translate(112 28.3032)"/>
</clipPath>
</defs>
</svg>
