<svg width="151" height="62" viewBox="0 0 151 62" fill="none" xmlns="http://www.w3.org/2000/svg">
<g clip-path="url(#clip0_67_6761)">
<g clip-path="url(#clip1_67_6761)">
<path d="M13.83 29.0532C13.83 20.5679 15.458 13.8832 18.714 8.99922C22.0193 4.11522 27.3227 1.67322 34.624 1.67322C41.9253 1.67322 47.204 4.11522 50.46 8.99922C53.7653 13.8832 55.418 20.5679 55.418 29.0532C55.418 37.6372 53.7653 44.3712 50.46 49.2552C47.204 54.1392 41.9253 56.5812 34.624 56.5812C27.3227 56.5812 22.0193 54.1392 18.714 49.2552C15.458 44.3712 13.83 37.6372 13.83 29.0532ZM42.986 29.0532C42.986 24.0706 42.4433 20.2472 41.358 17.5832C40.2727 14.8699 38.028 13.5132 34.624 13.5132C31.22 13.5132 28.9753 14.8699 27.89 17.5832C26.8047 20.2472 26.262 24.0706 26.262 29.0532C26.262 32.4079 26.4593 35.1952 26.854 37.4152C27.2487 39.5859 28.038 41.3619 29.222 42.7432C30.4553 44.0752 32.256 44.7412 34.624 44.7412C36.992 44.7412 38.768 44.0752 39.952 42.7432C41.1853 41.3619 41.9993 39.5859 42.394 37.4152C42.7887 35.1952 42.986 32.4079 42.986 29.0532Z" fill="#252B42"/>
</g>
<g clip-path="url(#clip2_67_6761)">
<g clip-path="url(#clip3_67_6761)">
<path d="M81.36 17.2232C81.36 17.9566 81.1667 18.6366 80.78 19.2632C80.4067 19.8766 79.8467 20.3832 79.1 20.7832C78.3667 21.1699 77.4933 21.3832 76.48 21.4232V23.0432H75.2V21.4032C73.7867 21.2832 72.6467 20.8632 71.78 20.1432C70.9133 19.4099 70.4533 18.4166 70.4 17.1632H74.04C74.12 17.9632 74.5067 18.4766 75.2 18.7032V15.5432C74.16 15.2766 73.3267 15.0166 72.7 14.7632C72.0867 14.5099 71.5467 14.1032 71.08 13.5432C70.6133 12.9832 70.38 12.2166 70.38 11.2432C70.38 10.0299 70.8267 9.05656 71.72 8.32322C72.6267 7.58989 73.7867 7.17656 75.2 7.08322V5.46322H76.48V7.08322C77.88 7.18989 78.9867 7.59656 79.8 8.30322C80.6133 9.00989 81.0667 9.98989 81.16 11.2432H77.5C77.42 10.5232 77.08 10.0566 76.48 9.84322V12.9432C77.5867 13.2499 78.44 13.5232 79.04 13.7632C79.64 14.0032 80.1733 14.4032 80.64 14.9632C81.12 15.5099 81.36 16.2632 81.36 17.2232ZM74 11.0832C74 11.4166 74.1 11.6966 74.3 11.9232C74.5133 12.1499 74.8133 12.3499 75.2 12.5232V9.74322C74.8267 9.80989 74.5333 9.95656 74.32 10.1832C74.1067 10.3966 74 10.6966 74 11.0832ZM76.48 18.7632C76.88 18.6966 77.1933 18.5366 77.42 18.2832C77.66 18.0299 77.78 17.7166 77.78 17.3432C77.78 16.9966 77.6667 16.7166 77.44 16.5032C77.2267 16.2766 76.9067 16.0832 76.48 15.9232V18.7632Z" fill="#252B42"/>
</g>
<g clip-path="url(#clip4_67_6761)">
<path d="M78.188 37.4152C78.188 38.3432 77.868 39.1166 77.228 39.7352C76.5987 40.3432 75.6333 40.6472 74.332 40.6472H72.188V45.3032H70.732V34.1512H74.332C75.5907 34.1512 76.5453 34.4552 77.196 35.0632C77.8573 35.6712 78.188 36.4552 78.188 37.4152ZM74.332 39.4472C75.1427 39.4472 75.74 39.2712 76.124 38.9192C76.508 38.5672 76.7 38.0659 76.7 37.4152C76.7 36.0392 75.9107 35.3512 74.332 35.3512H72.188V39.4472H74.332ZM88.0976 40.5832C88.0976 40.8606 88.0816 41.1539 88.0496 41.4632H81.0416C81.095 42.3272 81.3883 43.0046 81.9216 43.4952C82.4656 43.9752 83.1216 44.2152 83.8896 44.2152C84.519 44.2152 85.0416 44.0712 85.4576 43.7832C85.8843 43.4846 86.183 43.0899 86.3536 42.5992H87.9216C87.687 43.4419 87.2176 44.1299 86.5136 44.6632C85.8096 45.1859 84.935 45.4472 83.8896 45.4472C83.0576 45.4472 82.311 45.2606 81.6496 44.8872C80.999 44.5139 80.487 43.9859 80.1136 43.3032C79.7403 42.6099 79.5536 41.8099 79.5536 40.9032C79.5536 39.9966 79.735 39.2019 80.0976 38.5192C80.4603 37.8366 80.967 37.3139 81.6176 36.9512C82.279 36.5779 83.0363 36.3912 83.8896 36.3912C84.7216 36.3912 85.4576 36.5726 86.0976 36.9352C86.7376 37.2979 87.2283 37.7992 87.5696 38.4392C87.9216 39.0686 88.0976 39.7832 88.0976 40.5832ZM86.5936 40.2792C86.5936 39.7246 86.471 39.2499 86.2256 38.8552C85.9803 38.4499 85.6443 38.1459 85.2176 37.9432C84.8016 37.7299 84.3376 37.6232 83.8256 37.6232C83.0896 37.6232 82.4603 37.8579 81.9376 38.3272C81.4256 38.7966 81.1323 39.4472 81.0576 40.2792H86.5936ZM91.5755 37.9592C91.8315 37.4579 92.1942 37.0686 92.6635 36.7912C93.1435 36.5139 93.7248 36.3752 94.4075 36.3752V37.8792H94.0235C92.3915 37.8792 91.5755 38.7646 91.5755 40.5352V45.3032H90.1195V36.5352H91.5755V37.9592ZM111.866 34.2312V45.3032H110.41V37.0472L106.73 45.3032H105.706L102.01 37.0312V45.3032H100.554V34.2312H102.122L106.218 43.3832L110.314 34.2312H111.866ZM118.259 45.4472C117.438 45.4472 116.691 45.2606 116.019 44.8872C115.358 44.5139 114.835 43.9859 114.451 43.3032C114.078 42.6099 113.891 41.8099 113.891 40.9032C113.891 40.0072 114.083 39.2179 114.467 38.5352C114.862 37.8419 115.395 37.3139 116.067 36.9512C116.739 36.5779 117.491 36.3912 118.323 36.3912C119.155 36.3912 119.907 36.5779 120.579 36.9512C121.251 37.3139 121.779 37.8366 122.163 38.5192C122.558 39.2019 122.755 39.9966 122.755 40.9032C122.755 41.8099 122.552 42.6099 122.147 43.3032C121.752 43.9859 121.214 44.5139 120.531 44.8872C119.848 45.2606 119.091 45.4472 118.259 45.4472ZM118.259 44.1672C118.782 44.1672 119.272 44.0446 119.731 43.7992C120.19 43.5539 120.558 43.1859 120.835 42.6952C121.123 42.2046 121.267 41.6072 121.267 40.9032C121.267 40.1992 121.128 39.6019 120.851 39.1112C120.574 38.6206 120.211 38.2579 119.763 38.0232C119.315 37.7779 118.83 37.6552 118.307 37.6552C117.774 37.6552 117.283 37.7779 116.835 38.0232C116.398 38.2579 116.046 38.6206 115.779 39.1112C115.512 39.6019 115.379 40.1992 115.379 40.9032C115.379 41.6179 115.507 42.2206 115.763 42.7112C116.03 43.2019 116.382 43.5699 116.819 43.8152C117.256 44.0499 117.736 44.1672 118.259 44.1672ZM129.041 36.3752C130.108 36.3752 130.972 36.7006 131.633 37.3512C132.295 37.9912 132.625 38.9192 132.625 40.1352V45.3032H131.185V40.3432C131.185 39.4686 130.967 38.8019 130.529 38.3432C130.092 37.8739 129.495 37.6392 128.737 37.6392C127.969 37.6392 127.356 37.8792 126.897 38.3592C126.449 38.8392 126.225 39.5379 126.225 40.4552V45.3032H124.769V36.5352H126.225V37.7832C126.513 37.3352 126.903 36.9886 127.393 36.7432C127.895 36.4979 128.444 36.3752 129.041 36.3752ZM136.88 37.7352V42.9032C136.88 43.3299 136.971 43.6339 137.152 43.8152C137.333 43.9859 137.648 44.0712 138.096 44.0712H139.168V45.3032H137.856C137.045 45.3032 136.437 45.1166 136.032 44.7432C135.627 44.3699 135.424 43.7566 135.424 42.9032V37.7352H134.288V36.5352H135.424V34.3272H136.88V36.5352H139.168V37.7352H136.88ZM145.384 36.3752C146.045 36.3752 146.643 36.5192 147.176 36.8072C147.709 37.0846 148.125 37.5059 148.424 38.0712C148.733 38.6366 148.888 39.3246 148.888 40.1352V45.3032H147.448V40.3432C147.448 39.4686 147.229 38.8019 146.792 38.3432C146.355 37.8739 145.757 37.6392 145 37.6392C144.232 37.6392 143.619 37.8792 143.16 38.3592C142.712 38.8392 142.488 39.5379 142.488 40.4552V45.3032H141.032V33.4632H142.488V37.7832C142.776 37.3352 143.171 36.9886 143.672 36.7432C144.184 36.4979 144.755 36.3752 145.384 36.3752Z" fill="#374754"/>
</g>
</g>
</g>
<defs>
<clipPath id="clip0_67_6761">
<rect width="150" height="61" fill="white" transform="translate(0.5 0.303223)"/>
</clipPath>
<clipPath id="clip1_67_6761">
<rect width="69" height="104" fill="white" transform="translate(0.5 -21.1968)"/>
</clipPath>
<clipPath id="clip2_67_6761">
<rect width="81" height="51" fill="white" transform="translate(69.5 0.303223)"/>
</clipPath>
<clipPath id="clip3_67_6761">
<rect width="14" height="28" fill="white" transform="translate(69.5 0.303223)"/>
</clipPath>
<clipPath id="clip4_67_6761">
<rect width="81" height="23" fill="white" transform="translate(69.5 28.3032)"/>
</clipPath>
</defs>
</svg>
