<svg width="42" height="42" viewBox="0 0 42 42" fill="none" xmlns="http://www.w3.org/2000/svg">
<path d="M36.2126 5.38525H6.75349C6.04503 5.38525 5.47266 5.95763 5.47266 6.66609V36.1252C5.47266 36.8337 6.04503 37.406 6.75349 37.406H36.2126C36.9211 37.406 37.4934 36.8337 37.4934 36.1252V6.66609C37.4934 5.95763 36.9211 5.38525 36.2126 5.38525ZM32.5142 14.7313H29.9565C27.9512 14.7313 27.563 15.6839 27.563 17.0848V20.1708H32.3501L31.7257 25.002H27.563V37.406H22.5718V25.006H18.397V20.1708H22.5718V16.6085C22.5718 12.4739 25.0974 10.2204 28.7878 10.2204C30.5569 10.2204 32.0739 10.3525 32.5182 10.4125V14.7313H32.5142Z" fill="#2091F9"/>
</svg>
