<svg width="42" height="42" viewBox="0 0 42 42" fill="none" xmlns="http://www.w3.org/2000/svg">
<path d="M36.197 5.38525H6.73786C6.0294 5.38525 5.45703 5.95763 5.45703 6.66609V36.1252C5.45703 36.8337 6.0294 37.406 6.73786 37.406H36.197C36.9054 37.406 37.4778 36.8337 37.4778 36.1252V6.66609C37.4778 5.95763 36.9054 5.38525 36.197 5.38525ZM14.9552 32.671H10.2041V17.389H14.9552V32.671ZM12.5817 15.2997C12.037 15.2997 11.5046 15.1382 11.0517 14.8356C10.5989 14.533 10.2459 14.1029 10.0375 13.5997C9.82906 13.0965 9.77453 12.5428 9.88078 12.0087C9.98704 11.4745 10.2493 10.9838 10.6344 10.5987C11.0196 10.2136 11.5102 9.95128 12.0444 9.84503C12.5786 9.73877 13.1323 9.7933 13.6355 10.0017C14.1387 10.2102 14.5688 10.5631 14.8713 11.016C15.1739 11.4688 15.3354 12.0013 15.3354 12.5459C15.3314 14.0669 14.0986 15.2997 12.5817 15.2997ZM32.7427 32.671H27.9957V25.2381C27.9957 23.465 27.9636 21.1875 25.5261 21.1875C23.0565 21.1875 22.6762 23.1168 22.6762 25.1101V32.671H17.9331V17.389H22.4881V19.4784H22.5521C23.1845 18.2776 24.7335 17.0088 27.047 17.0088C31.8582 17.0088 32.7427 20.1748 32.7427 24.2895V32.671Z" fill="#2091F9"/>
</svg>
