<svg width="41" height="42" viewBox="0 0 41 42" fill="none" xmlns="http://www.w3.org/2000/svg">
<path d="M37.1455 11.0808C35.9207 11.6091 34.5878 11.9894 33.2149 12.1375C34.6403 11.2907 35.7077 9.95287 36.2168 8.37505C34.8793 9.17072 33.414 9.72866 31.886 10.0241C31.2474 9.34138 30.475 8.79748 29.617 8.42631C28.7589 8.05514 27.8337 7.86465 26.8988 7.86672C23.1163 7.86672 20.0744 10.9327 20.0744 14.6951C20.0744 15.2235 20.1384 15.7518 20.2425 16.2602C14.5788 15.964 9.52753 13.2582 6.16936 9.11553C5.55746 10.1607 5.2368 11.3507 5.24075 12.5618C5.24075 14.9313 6.44553 17.0207 8.28273 18.2495C7.20004 18.2068 6.14271 17.9092 5.19672 17.3809V17.4649C5.19672 20.7831 7.54225 23.5329 10.6683 24.1653C10.0813 24.3178 9.47753 24.3957 8.87111 24.3974C8.42682 24.3974 8.00655 24.3534 7.58227 24.2934C8.44683 26.9991 10.9645 28.9644 13.9624 29.0284C11.6169 30.8656 8.67898 31.9463 5.48891 31.9463C4.91654 31.9463 4.3882 31.9263 3.83984 31.8623C6.86581 33.8035 10.4561 34.9243 14.3226 34.9243C26.8748 34.9243 33.7432 24.5255 33.7432 15.4997C33.7432 15.2035 33.7432 14.9073 33.7232 14.6111C35.0521 13.6385 36.2168 12.4337 37.1455 11.0808Z" fill="#2091F9"/>
</svg>
